<?xml version="1.0" encoding="utf-8"?>
<!-- Generator: Adobe Illustrator 25.2.1, SVG Export Plug-In . SVG Version: 6.00 Build 0)  -->
<!DOCTYPE svg PUBLIC "-//W3C//DTD SVG 1.1//EN" "http://www.w3.org/Graphics/SVG/1.1/DTD/svg11.dtd" [
	<!ENTITY st0 "fill:#F6F6F6;stroke:#000000;stroke-miterlimit:10;">
	<!ENTITY st1 "fill:#FFFFFF;stroke:#000000;stroke-miterlimit:10;">
	<!ENTITY st2 "fill:#2A4B9B;stroke:#000000;stroke-miterlimit:10;">
	<!ENTITY st3 "fill:none;stroke:#000000;stroke-miterlimit:10;">
	<!ENTITY st4 "fill:#2A4B9B;stroke:#000000;stroke-width:0.5;stroke-miterlimit:10;">
	<!ENTITY st5 "fill:#E52320;stroke:#000000;stroke-miterlimit:10;">
	<!ENTITY st6 "fill:#75A9DB;stroke:#000000;stroke-miterlimit:10;">
	<!ENTITY st7 "fill:none;stroke:#000000;stroke-width:0.5;stroke-miterlimit:10;">
	<!ENTITY st8 "fill:#BCBCBB;stroke:#000000;stroke-miterlimit:10;">
	<!ENTITY st9 "fill:#372011;stroke:#000000;stroke-miterlimit:10;">
	<!ENTITY st10 "fill:none;stroke:#000000;stroke-width:0.5;stroke-linecap:round;stroke-linejoin:round;stroke-miterlimit:10;">
	<!ENTITY st11 "fill:#FBD3BF;stroke:#000000;stroke-miterlimit:10;">
	<!ENTITY st12 "fill:#808181;stroke:#000000;stroke-miterlimit:10;">
	<!ENTITY st13 "fill:#F07E19;stroke:#000000;stroke-miterlimit:10;">
	<!ENTITY st14 "fill:#FCEA1F;stroke:#000000;stroke-miterlimit:10;">
	<!ENTITY st15 "fill:#8A395F;stroke:#000000;stroke-miterlimit:10;">
	<!ENTITY st16 "fill:#41AB34;stroke:#000000;stroke-miterlimit:10;">
	<!ENTITY st17 "stroke:#000000;stroke-miterlimit:10;">
	<!ENTITY st18 "fill:#020203;">
	<!ENTITY st19 "fill:#801143;stroke:#000000;stroke-miterlimit:10;">
	<!ENTITY st20 "fill:#C01718;stroke:#000000;stroke-miterlimit:10;">
	<!ENTITY st21 "fill:#804112;stroke:#000000;stroke-miterlimit:10;">
	<!ENTITY st22 "fill:#E7247F;stroke:#000000;stroke-miterlimit:10;">
	<!ENTITY st23 "fill:#B61A74;stroke:#000000;stroke-miterlimit:10;">
	<!ENTITY st24 "fill:#CD7F32;stroke:#000000;stroke-miterlimit:10;">
	<!ENTITY st25 "fill:#67959B;stroke:#000000;stroke-miterlimit:10;">
	<!ENTITY st26 "fill:#BA7231;stroke:#000000;stroke-miterlimit:10;">
]>
<svg version="1.1" id="Camada_1" xmlns="http://www.w3.org/2000/svg" xmlns:xlink="http://www.w3.org/1999/xlink" x="0px" y="0px"
	 viewBox="0 0 29.3464565 15.1732283" style="enable-background:new 0 0 29.3464565 15.1732283;" xml:space="preserve">
<g>
	<rect x="0.5003997" y="0.5" style="&st26;" width="14.1732283" height="14.1732283"/>
	<rect x="14.6736279" y="0.5" style="&st1;" width="14.1732283" height="14.1732283"/>
	<g>
		<g>
			<path style="&st7;" d="M18.8639278,1.6950557c-0.2546387-0.1481934-0.5466919-0.2392578-0.8624878-0.2392578
				c-0.9526978,0-1.7250366,0.7723389-1.7250366,1.7250366s0.7723389,1.7249758,1.7250366,1.7249758
				c0.3157959,0,0.6078491-0.0910645,0.8624878-0.2392578"/>
			<path style="&st7;" d="M23.0541191,1.6950557c-0.2546387-0.1481934-0.5466919-0.2392578-0.8624878-0.2392578
				c-0.9526978,0-1.7250366,0.7723389-1.7250366,1.7250366s0.7723389,1.7249758,1.7250366,1.7249758
				c0.3157959,0,0.6078491-0.0910645,0.8624878-0.2392578"/>
			<path style="&st7;" d="M27.2443085,1.6950557c-0.2546387-0.1481934-0.5466919-0.2392578-0.8624878-0.2392578
				c-0.9526978,0-1.7250366,0.7723389-1.7250366,1.7250366s0.7723389,1.7249758,1.7250366,1.7249758
				c0.3157959,0,0.6078491-0.0910645,0.8624878-0.2392578"/>
		</g>
		<g>
			<path style="&st7;" d="M16.768837,6.1008658c-0.2546387-0.1481934-0.5466919-0.2392578-0.8624878-0.2392578
				c-0.4763451,0-0.9076014,0.1930819-1.2197723,0.5052495l-0.0131683,2.4262333
				c0.3131552,0.3199654,0.7498617,0.5185299,1.2329407,0.5185299c0.3157959,0,0.6078491-0.0910645,0.8624878-0.2392578"/>
			<path style="&st7;" d="M20.9590282,6.1008658c-0.2546387-0.1481934-0.5466919-0.2392578-0.8624878-0.2392578
				c-0.9526978,0-1.7250366,0.7723389-1.7250366,1.7250366s0.7723389,1.7249761,1.7250366,1.7249761
				c0.3157959,0,0.6078491-0.0910645,0.8624878-0.2392578"/>
			<path style="&st7;" d="M25.1492176,6.1008658c-0.2546387-0.1481934-0.5466919-0.2392578-0.8624878-0.2392578
				c-0.9526978,0-1.7250366,0.7723389-1.7250366,1.7250366s0.7723389,1.7249761,1.7250366,1.7249761
				c0.3157959,0,0.6078491-0.0910645,0.8624878-0.2392578"/>
			<path style="&st7;" d="M28.8470764,5.9039459c-0.1189117-0.0274796-0.2425976-0.0423379-0.3701572-0.0423379
				c-0.9526978,0-1.7250366,0.7723389-1.7250366,1.7250366s0.7723389,1.7249761,1.7250366,1.7249761
				c0.1275368,0,0.2511997-0.0148525,0.3700886-0.0423222"/>
		</g>
		<g>
			<path style="&st7;" d="M18.8639278,10.5066757c-0.2546387-0.1481934-0.5466919-0.2392578-0.8624878-0.2392578
				c-0.9526978,0-1.7250366,0.7723389-1.7250366,1.7250366s0.7723389,1.7249756,1.7250366,1.7249756
				c0.3157959,0,0.6078491-0.0910645,0.8624878-0.2392578"/>
			<path style="&st7;" d="M23.0541191,10.5066757c-0.2546387-0.1481934-0.5466919-0.2392578-0.8624878-0.2392578
				c-0.9526978,0-1.7250366,0.7723389-1.7250366,1.7250366s0.7723389,1.7249756,1.7250366,1.7249756
				c0.3157959,0,0.6078491-0.0910645,0.8624878-0.2392578"/>
			<path style="&st7;" d="M27.2443085,10.5066757c-0.2546387-0.1481934-0.5466919-0.2392578-0.8624878-0.2392578
				c-0.9526978,0-1.7250366,0.7723389-1.7250366,1.7250366s0.7723389,1.7249756,1.7250366,1.7249756
				c0.3157959,0,0.6078491-0.0910645,0.8624878-0.2392578"/>
		</g>
	</g>
</g>
</svg>
