<?xml version="1.0" encoding="utf-8"?>
<!-- Generator: Adobe Illustrator 25.2.1, SVG Export Plug-In . SVG Version: 6.00 Build 0)  -->
<svg version="1.1" id="Camada_1" xmlns="http://www.w3.org/2000/svg" xmlns:xlink="http://www.w3.org/1999/xlink" x="0px" y="0px"
	 viewBox="0 0 226.7716522 28.3466797" style="enable-background:new 0 0 226.7716522 28.3466797;" xml:space="preserve">
<style type="text/css">
	.st0{opacity:0;fill:#FFFFFF;}
	.st1{fill:#871249;}
</style>
<rect y="0.0001115" class="st0" width="226.7716522" height="28.3464565"/>
<g>
	<g>
		<path class="st1" d="M137.4239197,6.4309626c0,0.6054688-0.1152344,1.1806641-0.3457031,1.7255859
			s-0.5625,1.0302734-0.9960938,1.4560547c-0.4414062,0.4296875-0.9414062,0.7568359-1.4960938,0.9814453
			s-1.140625,0.3369141-1.7578125,0.3369141s-1.203125-0.1123047-1.7558594-0.3369141
			c-0.5537109-0.2246094-1.0488281-0.5517578-1.4863281-0.9814453c-0.4384766-0.4335938-0.7714844-0.9208984-1-1.4619141
			s-0.3427734-1.1142578-0.3427734-1.7197266c0-0.6132812,0.1142578-1.1923828,0.3427734-1.7373047s0.5615234-1.0341799,1-1.4677737
			c0.4296875-0.4257812,0.9199219-0.7480469,1.4707031-0.9667969s1.1425781-0.3281249,1.7714844-0.3281249
			c0.6328125,0,1.2265625,0.1103514,1.7792969,0.3310546s1.0449219,0.5419922,1.4746094,0.9638672
			c0.4375,0.4335938,0.7714844,0.9228518,1,1.4677737S137.4239197,5.8176813,137.4239197,6.4309626z M132.8282166,10.2336969
			c0.5078125,0,0.9882812-0.09375,1.4414062-0.28125s0.8632812-0.4609375,1.2265625-0.8203125
			c0.3554688-0.3632812,0.6289062-0.7763672,0.8183594-1.2392578s0.2832031-0.9501953,0.2832031-1.4619141
			c0-0.515625-0.09375-1.0029297-0.28125-1.4619141s-0.4609375-0.8720703-0.8203125-1.2392581
			c-0.3554688-0.359375-0.7617188-0.6328125-1.2167969-0.8203125s-0.9394531-0.28125-1.4511719-0.28125
			c-0.5097656,0-0.9882812,0.09375-1.4375,0.28125s-0.8554688,0.4609375-1.21875,0.8203125
			c-0.3603516,0.371094-0.6337891,0.7841799-0.8212891,1.2392581s-0.28125,0.9423828-0.28125,1.4619141
			c0,0.515625,0.09375,1.0029297,0.28125,1.4619141s0.4609375,0.8720703,0.8212891,1.2392578
			c0.359375,0.3632812,0.7617188,0.6376953,1.2070312,0.8232422S132.3067322,10.2336969,132.8282166,10.2336969z"/>
		<path class="st1" d="M147.0684509,13.3157282h-0.6972656V9.7415094c-0.203125,0.390625-0.4658203,0.6865234-0.7880859,0.8876953
			s-0.6943359,0.3017578-1.1162109,0.3017578c-0.7265625,0-1.3085938-0.2548828-1.7460938-0.7646484
			s-0.65625-1.1904297-0.65625-2.0419922c0-0.8476562,0.2226562-1.5283203,0.6679688-2.0419922
			s1.0351562-0.7705078,1.7695312-0.7705078c0.4023438,0,0.765625,0.1015625,1.0898438,0.3046875
			s0.5839844,0.4902344,0.7792969,0.8613281V5.5051813h0.6972656V13.3157282z M144.5840759,5.9739313
			c-0.5390625,0-0.9638672,0.1923828-1.2744141,0.5771484s-0.4658203,0.9130859-0.4658203,1.5849609
			c0,0.6679688,0.1474609,1.1884766,0.4423828,1.5615234s0.7041016,0.5595703,1.2275391,0.5595703
			c0.5546875,0,0.9990234-0.1972656,1.3330078-0.5917969s0.5009766-0.9257812,0.5009766-1.59375
			c0-0.65625-0.15625-1.1699219-0.46875-1.5410156S145.1348572,5.9739313,144.5840759,5.9739313z"/>
		<path class="st1" d="M149.7110291,5.5051813v2.5957031c0,0.7890625,0.1123047,1.3457031,0.3369141,1.6699219
			s0.6044922,0.4863281,1.1396484,0.4863281c0.53125,0,0.9121094-0.1640625,1.1425781-0.4921875
			s0.3457031-0.8828125,0.3457031-1.6640625V5.5051813h0.7148438v2.9648438c0,0.8085938-0.1855469,1.4208984-0.5566406,1.8369141
			s-0.9160156,0.6240234-1.6347656,0.6240234c-0.7226562,0-1.2714844-0.2080078-1.6464844-0.6240234
			s-0.5625-1.0283203-0.5625-1.8369141V5.5051813H149.7110291z"/>
		<path class="st1" d="M159.7774353,8.1243219h-4.1308594c0.0195312,0.671875,0.1875,1.1992188,0.5039062,1.5820312
			s0.7402344,0.5742188,1.2714844,0.5742188c0.3828125,0,0.71875-0.1035156,1.0078125-0.3105469
			s0.5292969-0.5195312,0.7207031-0.9375l0.6621094,0.3632812c-0.265625,0.5273438-0.5908203,0.9150391-0.9755859,1.1630859
			s-0.8564453,0.3720703-1.4150391,0.3720703c-0.7617188,0-1.3779297-0.2548828-1.8486328-0.7646484
			s-0.7060547-1.1787109-0.7060547-2.0068359c0-0.8515625,0.2333984-1.5390625,0.7001953-2.0625
			s1.0771484-0.7851562,1.8310547-0.7851562c0.71875,0,1.2949219,0.2412109,1.7285156,0.7236328
			s0.6503906,1.1259766,0.6503906,1.9306641V8.1243219z M158.9219666,7.5090876
			c-0.0351562-0.4765625-0.1933594-0.8457031-0.4746094-1.1074219s-0.6621094-0.3925781-1.1425781-0.3925781
			c-0.4375,0-0.8037109,0.1367188-1.0986328,0.4101562s-0.4658203,0.6367188-0.5126953,1.0898438H158.9219666z"/>
		<path class="st1" d="M164.7344666,10.7024469V1.6204156h0.6855469v4.6875
			c0.2109375-0.3320312,0.4697266-0.5810547,0.7763672-0.7470703s0.6591797-0.2490234,1.0576172-0.2490234
			c0.5898438,0,1.0488281,0.1640625,1.3769531,0.4921875s0.4921875,0.7851562,0.4921875,1.3710938v3.5273438h-0.7324219V7.4973688
			c0-0.5195312-0.1083984-0.9052734-0.3251953-1.1572266s-0.5517578-0.3779297-1.0048828-0.3779297
			c-0.5507812,0-0.9560547,0.1630859-1.2158203,0.4892578s-0.3896484,0.8388672-0.3896484,1.5380859v2.7128906H164.7344666z"/>
		<path class="st1" d="M174.8243103,10.7024469V9.7532282c-0.171875,0.3828125-0.4130859,0.6748047-0.7236328,0.8759766
			s-0.6767578,0.3017578-1.0986328,0.3017578c-0.7460938,0-1.3466797-0.2558594-1.8017578-0.7675781
			s-0.6826172-1.1875-0.6826172-2.0273438c0-0.8320312,0.2246094-1.5107422,0.6738281-2.0361328
			s1.0292969-0.7880859,1.7402344-0.7880859c0.4414062,0,0.8232422,0.0966797,1.1455078,0.2900391
			s0.5712891,0.4775391,0.7470703,0.8525391V5.5051813h0.7207031v5.1972656H174.8243103z M171.3204041,8.1594782
			c0,0.671875,0.1513672,1.1894531,0.4541016,1.5527344s0.7353516,0.5449219,1.2978516,0.5449219
			c0.546875,0,0.9775391-0.1982422,1.2919922-0.5947266s0.4716797-0.9423828,0.4716797-1.6376953
			c0-0.6367188-0.15625-1.1376953-0.46875-1.5029297s-0.7402344-0.5478516-1.2832031-0.5478516
			s-0.9726562,0.1943359-1.2890625,0.5830078S171.3204041,7.4797907,171.3204041,8.1594782z M172.4981384,4.6672907
			l1.2480469-2.0507815h0.9609375l-1.6582031,2.0507815H172.4981384z"/>
		<path class="st1" d="M128.5420837,25.1028366V19.905571h0.6855469v0.8027344
			c0.2109375-0.3320312,0.4697266-0.5810547,0.7763672-0.7470703s0.6582031-0.2490234,1.0566406-0.2490234
			c0.5898438,0,1.0488281,0.1640625,1.3769531,0.4921875s0.4921875,0.7851562,0.4921875,1.3710938v3.5273438h-0.7324219v-3.2050781
			c0-0.5195312-0.1074219-0.9052734-0.3242188-1.1572266s-0.5527344-0.3779297-1.0058594-0.3779297
			c-0.5507812,0-0.9550781,0.1630859-1.2148438,0.4892578s-0.3896484,0.8388672-0.3896484,1.5380859v2.7128906H128.5420837z"/>
		<path class="st1" d="M137.1543884,25.3313522c-0.3710938,0-0.7265625-0.0732422-1.0664062-0.2197266
			s-0.6484375-0.3564453-0.9257812-0.6298828c-0.2617188-0.2578125-0.4609375-0.5546875-0.5976562-0.890625
			s-0.2050781-0.6953125-0.2050781-1.078125c0-0.3789062,0.0703125-0.7382812,0.2109375-1.078125
			s0.3417969-0.640625,0.6035156-0.9023438c0.265625-0.265625,0.5683594-0.46875,0.9082031-0.609375
			s0.6972656-0.2109375,1.0722656-0.2109375c0.3828125,0,0.7470703,0.0703125,1.0927734,0.2109375
			s0.6533203,0.34375,0.9228516,0.609375s0.4755859,0.5683594,0.6181641,0.9082031s0.2138672,0.6972656,0.2138672,1.0722656
			s-0.0703125,0.7314453-0.2109375,1.0693359s-0.34375,0.6376953-0.609375,0.8994141
			c-0.2734375,0.2734375-0.5849609,0.4833984-0.9345703,0.6298828S137.5332947,25.3313522,137.1543884,25.3313522z
			 M137.1778259,24.6575241c0.5703125,0,1.0537109-0.2060547,1.4501953-0.6181641s0.5947266-0.9169922,0.5947266-1.5146484
			c0-0.6054688-0.1972656-1.1132812-0.5917969-1.5234375s-0.8789062-0.6152344-1.453125-0.6152344
			c-0.5703125,0-1.0527344,0.2050781-1.4472656,0.6152344s-0.5917969,0.9179688-0.5917969,1.5234375
			c0,0.5976562,0.1972656,1.1025391,0.5917969,1.5146484S136.6075134,24.6575241,137.1778259,24.6575241z"/>
		<path class="st1" d="M145.6680603,25.1028366h-0.7207031v-9.0820312h0.7207031v4.8339844
			c0.1757812-0.375,0.4228516-0.6591797,0.7412109-0.8525391s0.6982422-0.2900391,1.1396484-0.2900391
			c0.7109375,0,1.2910156,0.2626953,1.7402344,0.7880859s0.6738281,1.2041016,0.6738281,2.0361328
			c0,0.8398438-0.2275391,1.515625-0.6826172,2.0273438s-1.0556641,0.7675781-1.8017578,0.7675781
			c-0.4179688,0-0.78125-0.0996094-1.0898438-0.2988281s-0.5488281-0.4921875-0.7207031-0.8789062V25.1028366z
			 M149.1602478,22.5598679c0-0.6796875-0.1582031-1.2138672-0.4746094-1.6025391s-0.7460938-0.5830078-1.2890625-0.5830078
			s-0.96875,0.1826172-1.2773438,0.5478516s-0.4628906,0.8662109-0.4628906,1.5029297
			c0,0.6953125,0.1572266,1.2412109,0.4716797,1.6376953s0.7451172,0.5947266,1.2919922,0.5947266
			c0.5585938,0,0.9882812-0.1806641,1.2890625-0.5419922S149.1602478,23.2356491,149.1602478,22.5598679z"/>
		<path class="st1" d="M152.1602478,20.9485397c0.265625-0.4492188,0.5263672-0.7675781,0.7822266-0.9550781
			s0.5537109-0.28125,0.8935547-0.28125c0.1015625,0,0.2041016,0.0097656,0.3076172,0.0292969
			s0.2060547,0.046875,0.3076172,0.0820312l-0.234375,0.6796875c-0.078125-0.0234375-0.1591797-0.0429688-0.2431641-0.0585938
			s-0.1650391-0.0234375-0.2431641-0.0234375c-0.4335938,0-0.8037109,0.203125-1.1103516,0.609375
			s-0.4599609,0.9121094-0.4599609,1.5175781v2.5546875h-0.7207031V19.905571h0.7207031V20.9485397z"/>
		<path class="st1" d="M159.0567322,25.1028366v-0.9492188c-0.171875,0.3828125-0.4130859,0.6748047-0.7236328,0.8759766
			s-0.6767578,0.3017578-1.0986328,0.3017578c-0.7460938,0-1.3466797-0.2558594-1.8017578-0.7675781
			s-0.6826172-1.1875-0.6826172-2.0273438c0-0.8320312,0.2246094-1.5107422,0.6738281-2.0361328
			s1.0292969-0.7880859,1.7402344-0.7880859c0.4414062,0,0.8232422,0.0966797,1.1455078,0.2900391
			s0.5712891,0.4775391,0.7470703,0.8525391V19.905571h0.7207031v5.1972656H159.0567322z M155.5528259,22.5598679
			c0,0.671875,0.1513672,1.1894531,0.4541016,1.5527344s0.7353516,0.5449219,1.2978516,0.5449219
			c0.546875,0,0.9775391-0.1982422,1.2919922-0.5947266s0.4716797-0.9423828,0.4716797-1.6376953
			c0-0.6367188-0.15625-1.1376953-0.46875-1.5029297s-0.7402344-0.5478516-1.2832031-0.5478516
			s-0.9726562,0.1943359-1.2890625,0.5830078S155.5528259,21.8801804,155.5528259,22.5598679z"/>
		<path class="st1" d="M161.1192322,24.1770554l0.6855469-0.3925781c0.1132812,0.2890625,0.2773438,0.5068359,0.4921875,0.6533203
			s0.4785156,0.2197266,0.7910156,0.2197266c0.3046875,0,0.546875-0.0771484,0.7265625-0.2314453
			s0.2695312-0.3603516,0.2695312-0.6181641c0-0.3984375-0.3535156-0.7363281-1.0605469-1.0136719
			c-0.0742188-0.0273438-0.1328125-0.0507812-0.1757812-0.0703125c-0.546875-0.2148438-0.9296875-0.4365234-1.1484375-0.6650391
			s-0.328125-0.5107422-0.328125-0.8466797c0-0.4414062,0.15625-0.8037109,0.46875-1.0869141
			s0.7167969-0.4248047,1.2128906-0.4248047c0.421875,0,0.78125,0.0917969,1.078125,0.2753906
			s0.5136719,0.4453125,0.6503906,0.7851562l-0.6621094,0.3691406c-0.0820312-0.2460938-0.21875-0.4335938-0.4101562-0.5625
			s-0.4257812-0.1933594-0.703125-0.1933594c-0.25,0-0.4560547,0.0732422-0.6181641,0.2197266
			s-0.2431641,0.3291016-0.2431641,0.5478516c0,0.2148438,0.0800781,0.3925781,0.2402344,0.5332031
			s0.4921875,0.2949219,0.9960938,0.4628906c0.5703125,0.1992188,0.9541016,0.4160156,1.1513672,0.6503906
			s0.2958984,0.5585938,0.2958984,0.9726562c0,0.4765625-0.1699219,0.8574219-0.5097656,1.1425781
			s-0.796875,0.4277344-1.3710938,0.4277344c-0.4414062,0-0.8212891-0.1005859-1.1396484-0.3017578
			S161.2598572,24.5442429,161.1192322,24.1770554z"/>
		<path class="st1" d="M170.1309509,25.1028366v-0.9492188c-0.171875,0.3828125-0.4130859,0.6748047-0.7236328,0.8759766
			s-0.6767578,0.3017578-1.0986328,0.3017578c-0.7460938,0-1.3466797-0.2558594-1.8017578-0.7675781
			s-0.6826172-1.1875-0.6826172-2.0273438c0-0.8320312,0.2246094-1.5107422,0.6738281-2.0361328
			s1.0292969-0.7880859,1.7402344-0.7880859c0.4414062,0,0.8232422,0.0966797,1.1455078,0.2900391
			s0.5712891,0.4775391,0.7470703,0.8525391V19.905571h0.7207031v5.1972656H170.1309509z M166.6270447,22.5598679
			c0,0.671875,0.1513672,1.1894531,0.4541016,1.5527344s0.7353516,0.5449219,1.2978516,0.5449219
			c0.546875,0,0.9775391-0.1982422,1.2919922-0.5947266s0.4716797-0.9423828,0.4716797-1.6376953
			c0-0.6367188-0.15625-1.1376953-0.46875-1.5029297s-0.7402344-0.5478516-1.2832031-0.5478516
			s-0.9726562,0.1943359-1.2890625,0.5830078S166.6270447,21.8801804,166.6270447,22.5598679z M170.2891541,17.5208054
			c-0.0976562,0.3515625-0.2451172,0.6191406-0.4423828,0.8027344s-0.4384766,0.2753906-0.7236328,0.2753906
			c-0.0625,0-0.125-0.0048828-0.1875-0.0146484s-0.1269531-0.0244141-0.1933594-0.0439453l-0.46875-0.1582031
			c-0.046875-0.015625-0.0986328-0.0273438-0.1552734-0.0351562s-0.1181641-0.0117188-0.1845703-0.0117188
			c-0.1210938,0-0.2255859,0.0292969-0.3134766,0.0878906s-0.1630859,0.1484375-0.2255859,0.2695312h-0.515625
			c0.0859375-0.3398438,0.2275391-0.5986328,0.4248047-0.7763672s0.4443359-0.2666016,0.7412109-0.2666016
			c0.0664062,0,0.1289062,0.0039062,0.1875,0.0117188s0.1113281,0.0195312,0.1582031,0.0351562l0.4570312,0.1582031
			c0.0664062,0.0195312,0.1289062,0.0341797,0.1875,0.0439453s0.1152344,0.0146484,0.1699219,0.0146484
			c0.140625,0,0.2587891-0.0332031,0.3544922-0.0996094s0.1669922-0.1640625,0.2138672-0.2929688H170.2891541z"/>
		<path class="st1" d="M175.1465759,25.3313522c-0.3710938,0-0.7265625-0.0732422-1.0664062-0.2197266
			s-0.6484375-0.3564453-0.9257812-0.6298828c-0.2617188-0.2578125-0.4609375-0.5546875-0.5976562-0.890625
			s-0.2050781-0.6953125-0.2050781-1.078125c0-0.3789062,0.0703125-0.7382812,0.2109375-1.078125
			s0.3417969-0.640625,0.6035156-0.9023438c0.265625-0.265625,0.5683594-0.46875,0.9082031-0.609375
			s0.6972656-0.2109375,1.0722656-0.2109375c0.3828125,0,0.7470703,0.0703125,1.0927734,0.2109375
			s0.6533203,0.34375,0.9228516,0.609375s0.4755859,0.5683594,0.6181641,0.9082031s0.2138672,0.6972656,0.2138672,1.0722656
			s-0.0703125,0.7314453-0.2109375,1.0693359s-0.34375,0.6376953-0.609375,0.8994141
			c-0.2734375,0.2734375-0.5849609,0.4833984-0.9345703,0.6298828S175.5254822,25.3313522,175.1465759,25.3313522z
			 M175.1700134,24.6575241c0.5703125,0,1.0537109-0.2060547,1.4501953-0.6181641s0.5947266-0.9169922,0.5947266-1.5146484
			c0-0.6054688-0.1972656-1.1132812-0.5917969-1.5234375s-0.8789062-0.6152344-1.453125-0.6152344
			c-0.5703125,0-1.0527344,0.2050781-1.4472656,0.6152344s-0.5917969,0.9179688-0.5917969,1.5234375
			c0,0.5976562,0.1972656,1.1025391,0.5917969,1.5146484S174.5997009,24.6575241,175.1700134,24.6575241z"/>
		<path class="st1" d="M180.2276306,18.6809616h-0.6972656v-0.1875c0-0.671875,0.1894531-1.2001953,0.5683594-1.5849609
			s0.8984375-0.5771484,1.5585938-0.5771484c0.59375,0,1.0673828,0.1757812,1.4208984,0.5273438
			s0.5302734,0.8242188,0.5302734,1.4179688c0,0.4335938-0.09375,0.796875-0.28125,1.0898438s-0.5683594,0.625-1.1425781,0.9960938
			c-0.1015625,0.0625-0.2421875,0.1503906-0.421875,0.2636719c-0.7773438,0.4804688-1.1660156,0.9335938-1.1660156,1.359375
			c0,0.28125,0.0898438,0.5068359,0.2695312,0.6767578s0.4179688,0.2548828,0.7148438,0.2548828
			c0.3476562,0,0.6171875-0.0908203,0.8085938-0.2724609s0.2871094-0.4384766,0.2871094-0.7705078v-0.1054688h0.6445312v0.140625
			c0,0.5273438-0.15625,0.9316406-0.46875,1.2128906s-0.7636719,0.421875-1.3535156,0.421875
			c-0.484375,0-0.8798828-0.1464844-1.1865234-0.4394531s-0.4599609-0.671875-0.4599609-1.1367188
			c0-0.3398438,0.0898438-0.6396484,0.2695312-0.8994141s0.5136719-0.5517578,1.0019531-0.8759766
			c0.1015625-0.0625,0.2441406-0.1523438,0.4277344-0.2695312c0.8828125-0.5585938,1.3242188-1.0917969,1.3242188-1.5996094
			c0-0.3789062-0.1132812-0.6816406-0.3398438-0.9082031s-0.5332031-0.3398438-0.9199219-0.3398438
			c-0.4453125,0-0.7880859,0.1367188-1.0283203,0.4101562s-0.3603516,0.6601562-0.3603516,1.1601562V18.6809616z
			 M180.8721619,24.733696c0-0.1679688,0.0585938-0.3105469,0.1757812-0.4277344s0.2597656-0.1757812,0.4277344-0.1757812
			s0.3095703,0.0585938,0.4248047,0.1757812s0.1728516,0.2597656,0.1728516,0.4277344s-0.0576172,0.3095703-0.1728516,0.4248047
			s-0.2568359,0.1728516-0.4248047,0.1728516s-0.3105469-0.0576172-0.4277344-0.1728516
			S180.8721619,24.9016647,180.8721619,24.733696z"/>
	</g>
	<g>
		<g>
			<path class="st1" d="M6.0821157,5.5849609C6.0703969,5.9394531,6.0059438,6.4492188,5.8887563,7.1142578
				C5.869225,7.2226562,5.8536,7.3085938,5.8418813,7.3730469L5.19735,11.0585938H2.5078971L0.0000846,0.2451172h3.09375
				l0.6738281,4.7636719c0.0585938,0.4189453,0.1035156,0.8017578,0.1347656,1.1494141
				c0.03125,0.3466797,0.0507812,0.6728516,0.0585938,0.9785156h0.0703123
				C4.0391469,6.7080078,4.0996938,6.1445312,4.212975,5.4453125C4.2207875,5.3808594,4.2286,5.3291016,4.2364125,5.2900391
				l0.8144531-5.0449219h2.1738281L8.0391474,5.296875c0.0039062,0.0302734,0.0117188,0.0791016,0.0234375,0.1484375
				C8.1758661,6.1494141,8.236413,6.7128906,8.2442255,7.1367188H8.314538
				c0.0078125-0.3056641,0.0273438-0.6318359,0.0585938-0.9785156c0.03125-0.3476562,0.0761719-0.7304688,0.1347656-1.1494141
				l0.6738281-4.7636719h3.09375L9.767663,11.0585938H7.0782094L6.4336782,7.3730469
				c-0.0117188-0.0644531-0.0273438-0.1523438-0.046875-0.2666016C6.2696157,6.4472656,6.2051625,5.9394531,6.1934438,5.5849609
				H6.0821157z"/>
			<path class="st1" d="M12.4654169,11.0585938V0.2451172h3.1347656v10.8134766H12.4654169z"/>
			<path class="st1" d="M16.868248,11.0585938V0.2451172h3.0234375v4.609375l1.9570312-4.609375h3.4921875l-2.5898438,5.3251953
				l2.953125,5.4882812h-3.7324219l-2.0800781-4.5205078v4.5205078H16.868248z"/>
			<path class="st1" d="M25.7007675,11.0585938V0.2451172h3.1347656v10.8134766H25.7007675z"/>
			<path class="st1" d="M41.6607285,11.0585938l-0.375-4.2841797c-0.0234375-0.3300781-0.046875-0.6582031-0.0703125-0.9863281
				c-0.0234375-0.3271484-0.0429688-0.6552734-0.0585938-0.9853516c-0.0351562,0.3095703-0.0849609,0.6386719-0.1494141,0.9853516
				c-0.0644531,0.3476562-0.1435547,0.7177734-0.2373047,1.1123047l-0.984375,4.1582031h-1.8339844l-0.984375-4.1582031
				c-0.0976562-0.3945312-0.1777344-0.7646484-0.2402344-1.1123047c-0.0625-0.3466797-0.1113281-0.6757812-0.1464844-0.9853516
				c-0.0195312,0.3349609-0.0400391,0.6640625-0.0615234,0.9892578s-0.0439453,0.6523438-0.0673828,0.9824219l-0.375,4.2841797
				h-3.0234375l1.4648438-10.8134766h3.1816406l0.609375,2.6738281c0.0195312,0.0839844,0.0488281,0.2089844,0.0878906,0.3769531
				c0.2578125,1.1269531,0.4160156,2.0556641,0.4746094,2.7841797h0.0527344
				c0.046875-0.4580078,0.1171875-0.9453125,0.2109375-1.4619141c0.09375-0.5175781,0.21875-1.0986328,0.375-1.7431641
				l0.6386719-2.6298828h3.1757812l1.359375,10.8134766H41.6607285z"/>
			<path class="st1" d="M45.0440292,6.109375V0.2451172h3.0820312v5.8945312c0,0.6845703,0.0644531,1.1552734,0.1933594,1.4140625
				s0.3496094,0.3876953,0.6621094,0.3876953c0.3085938,0,0.5292969-0.1328125,0.6621094-0.3984375
				c0.1328125-0.2666016,0.1992188-0.734375,0.1992188-1.4033203V0.2451172h3.0820312V6.109375
				c0,0.7685547-0.0400391,1.4013672-0.1201172,1.8984375c-0.0800781,0.4980469-0.2080078,0.9140625-0.3837891,1.2480469
				c-0.34375,0.6748047-0.8125,1.1923828-1.40625,1.5517578s-1.2714844,0.5390625-2.0332031,0.5390625
				c-0.765625,0-1.4453125-0.1796875-2.0390625-0.5390625s-1.0625-0.8769531-1.40625-1.5517578
				c-0.171875-0.3291016-0.296875-0.7402344-0.375-1.2333984C45.0830917,7.5302734,45.0440292,6.8925781,45.0440292,6.109375z"/>
			<path class="st1" d="M53.349205,10.1357422l0.984375-3.0292969c0.4414062,0.3896484,0.8349609,0.6738281,1.1806641,0.8535156
				s0.6689453,0.2695312,0.9697266,0.2695312c0.2109375,0,0.3769531-0.0507812,0.4980469-0.1513672
				s0.1816406-0.2373047,0.1816406-0.4101562c0-0.2998047-0.3027344-0.5292969-0.9082031-0.6865234
				c-0.1953125-0.0546875-0.3476562-0.0957031-0.4570312-0.1259766c-0.640625-0.1962891-1.1308594-0.5458984-1.4707031-1.0488281
				c-0.3398438-0.5019531-0.5097656-1.1269531-0.5097656-1.8759766c0-1.1621094,0.3300781-2.1074219,0.9902344-2.8359375
				s1.5253906-1.09375,2.5957031-1.09375c0.4921875,0,0.9765625,0.0810547,1.453125,0.2441406
				c0.4765625,0.1621094,0.9570312,0.4082031,1.4414062,0.7382812l-0.9375,2.8291016
				c-0.296875-0.2753906-0.5947266-0.4863281-0.8935547-0.6318359c-0.2988281-0.1445312-0.5888672-0.2177734-0.8701172-0.2177734
				c-0.2148438,0-0.3808594,0.0458984-0.4980469,0.1367188c-0.1171875,0.0917969-0.1757812,0.2177734-0.1757812,0.3808594
				c0,0.3046875,0.4277344,0.5732422,1.2832031,0.8046875c0.1367188,0.0400391,0.2421875,0.0693359,0.3164062,0.0888672
				c0.5898438,0.1669922,1.0546875,0.5097656,1.3945312,1.0263672C60.2574081,5.9179688,60.42733,6.5429688,60.42733,7.2763672
				c0,1.1972656-0.3427734,2.1748047-1.0283203,2.9326172c-0.6855469,0.7587891-1.5771484,1.1376953-2.6748047,1.1376953
				c-0.5625,0-1.125-0.1005859-1.6875-0.3027344S53.911705,10.5390625,53.349205,10.1357422z"/>
			<path class="st1" d="M61.0625839,11.0585938V0.2451172h5.7363281v2.9326172h-2.7128906V4.21875h2.4609375v2.7695312h-2.4609375
				v1.1376953h2.7832031v2.9326172H61.0625839z"/>
			<path class="st1" d="M67.6275253,6.109375V0.2451172h3.0820312v5.8945312c0,0.6845703,0.0644531,1.1552734,0.1933594,1.4140625
				s0.3496094,0.3876953,0.6621094,0.3876953c0.3085938,0,0.5292969-0.1328125,0.6621094-0.3984375
				c0.1328125-0.2666016,0.1992188-0.734375,0.1992188-1.4033203V0.2451172h3.0820312V6.109375
				c0,0.7685547-0.0400391,1.4013672-0.1201172,1.8984375c-0.0800781,0.4980469-0.2080078,0.9140625-0.3837891,1.2480469
				c-0.34375,0.6748047-0.8125,1.1923828-1.40625,1.5517578s-1.2714844,0.5390625-2.0332031,0.5390625
				c-0.765625,0-1.4453125-0.1796875-2.0390625-0.5390625s-1.0625-0.8769531-1.40625-1.5517578
				c-0.171875-0.3291016-0.296875-0.7402344-0.375-1.2333984C67.6665878,7.5302734,67.6275253,6.8925781,67.6275253,6.109375z"/>
			<path class="st1" d="M80.4292831,11.0585938V0.2451172h2.4960938c0.7929688,0,1.4697266,0.0556641,2.0302734,0.1660156
				c0.5605469,0.1113281,1.0166016,0.2822266,1.3681641,0.5136719c0.7421875,0.4921875,1.3115234,1.1445312,1.7080078,1.9570312
				s0.5947266,1.7382812,0.5947266,2.7773438c0,1.0341797-0.1972656,1.9550781-0.5917969,2.7626953
				s-0.9648438,1.4599609-1.7109375,1.9570312c-0.3632812,0.2363281-0.8242188,0.4091797-1.3828125,0.5175781
				s-1.3066406,0.1621094-2.2441406,0.1621094H80.4292831z M83.4878769,7.7568359
				c0.6953125-0.0048828,1.203125-0.1757812,1.5234375-0.5136719c0.3203125-0.3369141,0.4804688-0.8652344,0.4804688-1.5839844
				c0-0.7041016-0.1533203-1.2285156-0.4599609-1.5732422s-0.7763672-0.5166016-1.4091797-0.5166016h-0.1347656V7.7568359z"/>
			<path class="st1" d="M98.3965683,5.6738281c0,0.7929688-0.1113281,1.5302734-0.3339844,2.2119141
				c-0.2226562,0.6826172-0.5488281,1.2919922-0.9785156,1.828125c-0.4296875,0.5273438-0.9248047,0.9306641-1.4853516,1.2119141
				c-0.5605469,0.2802734-1.1572266,0.4208984-1.7900391,0.4208984c-0.640625,0-1.2402344-0.140625-1.7988281-0.4208984
				c-0.5585938-0.28125-1.0546875-0.6894531-1.4882812-1.2265625c-0.4257812-0.5214844-0.7480469-1.1220703-0.9667969-1.8017578
				s-0.328125-1.4208984-0.328125-2.2236328s0.109375-1.5458984,0.328125-2.2304688s0.5410156-1.2880859,0.9667969-1.8095703
				c0.4296875-0.5322266,0.9238281-0.9365234,1.4824219-1.2148438s1.1601562-0.4179688,1.8046875-0.4179688
				s1.2460938,0.1396484,1.8046875,0.4179688s1.0546875,0.6826172,1.4882812,1.2148438
				c0.421875,0.5263672,0.7431641,1.1328125,0.9638672,1.8164062C98.2862167,4.1347656,98.3965683,4.8759766,98.3965683,5.6738281z
				 M93.8086777,7.7128906c0.4335938,0,0.7822266-0.1865234,1.0458984-0.5576172
				c0.2636719-0.3720703,0.3955078-0.8652344,0.3955078-1.4814453c0-0.6201172-0.1318359-1.1191406-0.3955078-1.4951172
				c-0.2636719-0.3769531-0.6123047-0.5654297-1.0458984-0.5654297s-0.7832031,0.1894531-1.0488281,0.5683594
				c-0.265625,0.3798828-0.3984375,0.8769531-0.3984375,1.4921875c0,0.6162109,0.1328125,1.109375,0.3984375,1.4814453
				C93.0254745,7.5263672,93.3750839,7.7128906,93.8086777,7.7128906z"/>
			<path class="st1" d="M37.9107285,28.0585938V17.2451172h3.1347656v10.8134766H37.9107285z"/>
			<path class="st1" d="M42.3135605,28.0585938V17.2451172h3.6855469c1.296875,0,2.2451172,0.3154297,2.8447266,0.9453125
				c0.5996094,0.6308594,0.8994141,1.6298828,0.8994141,2.9990234c0,1.2753906-0.2695312,2.2070312-0.8085938,2.7958984
				c-0.5390625,0.5878906-1.3945312,0.8828125-2.5664062,0.8828125h-0.9667969v3.1904297H42.3135605z M45.4131699,20.2509766
				v1.8027344h0.4804688c0.2929688,0,0.5175781-0.078125,0.6738281-0.2324219
				c0.15625-0.1552734,0.234375-0.3759766,0.234375-0.6611328c0-0.2861328-0.0800781-0.5087891-0.2402344-0.6689453
				s-0.3828125-0.2402344-0.6679688-0.2402344H45.4131699z"/>
			<path class="st1" d="M50.4722519,28.0585938V17.2451172h3.1347656v10.8134766H50.4722519z"/>
			<path class="st1" d="M54.8750839,28.0585938V17.2451172h3.8789062c1.125,0,1.984375,0.3125,2.578125,0.9375
				c0.59375,0.6259766,0.890625,1.5273438,0.890625,2.7041016c0,0.7675781-0.1494141,1.4003906-0.4482422,1.8984375
				c-0.2988281,0.4970703-0.7021484,0.7871094-1.2099609,0.8710938l2.2910156,4.4023438h-3.4570312l-1.5-3.5673828v3.5673828
				H54.8750839z M57.8985214,20.0292969v2.1132812h0.4804688c0.2929688,0,0.5185547-0.0898438,0.6767578-0.2705078
				c0.1582031-0.1796875,0.2373047-0.4365234,0.2373047-0.7714844c0-0.3447266-0.0791016-0.609375-0.2373047-0.7939453
				s-0.3837891-0.2773438-0.6767578-0.2773438H57.8985214z"/>
			<path class="st1" d="M61.9322128,28.0585938l3.0585938-10.8134766h3.4335938l3,10.8134766h-3.3164062l-0.2753906-1.359375
				h-2.3261719l-0.2636719,1.359375H61.9322128z M66.0220566,24.1289062h1.2832031l-0.2636719-1.2255859
				c-0.1289062-0.6210938-0.2167969-1.0986328-0.2636719-1.4335938s-0.0761719-0.6494141-0.0878906-0.9453125H66.637291
				c-0.0117188,0.2958984-0.0410156,0.6103516-0.0878906,0.9453125s-0.1347656,0.8125-0.2636719,1.4335938L66.0220566,24.1289062z"
				/>
			<path class="st1" d="M71.5030136,28.0585938V17.2451172h3.0234375l2.6660156,5.6582031
				c-0.0351562-0.2519531-0.0595703-0.5292969-0.0732422-0.8349609s-0.0205078-0.7041016-0.0205078-1.1962891v-3.6269531h2.9707031
				v10.8134766h-3.046875l-2.6367188-5.6132812c0.03125,0.2412109,0.0546875,0.5009766,0.0703125,0.7792969
				s0.0234375,0.5898438,0.0234375,0.9335938v3.9003906H71.5030136z"/>
			<path class="st1" d="M86.7105331,24.1884766h-1.3417969v-2.5410156h4.7402344
				c0.0078125,0.2216797,0.0136719,0.3867188,0.0175781,0.4951172s0.0058594,0.2041016,0.0058594,0.2880859
				c0,0.6201172-0.046875,1.1865234-0.140625,1.6982422c-0.09375,0.5126953-0.2304688,0.9658203-0.4101562,1.359375
				c-0.4375,0.9257812-1.0019531,1.6337891-1.6933594,2.1230469c-0.6914062,0.4902344-1.4765625,0.7353516-2.3554688,0.7353516
				c-0.6484375,0-1.2509766-0.1367188-1.8076172-0.4101562s-1.0498047-0.6757812-1.4794922-1.2070312
				c-0.4257812-0.5322266-0.7480469-1.140625-0.9667969-1.8251953c-0.21875-0.6835938-0.328125-1.4277344-0.328125-2.2304688
				c0-0.8076172,0.1103516-1.5546875,0.3310547-2.2412109c0.2207031-0.6875,0.5419922-1.2919922,0.9638672-1.8134766
				c0.4257812-0.5273438,0.9179688-0.9287109,1.4765625-1.2041016s1.1621094-0.4140625,1.8105469-0.4140625
				c0.8789062,0,1.6601562,0.2431641,2.34375,0.7275391c0.6835938,0.4853516,1.2421875,1.1953125,1.6757812,2.1308594
				l-2.7480469,1.2851562c-0.1445312-0.2998047-0.3183594-0.5244141-0.5214844-0.671875s-0.4355469-0.2216797-0.6972656-0.2216797
				c-0.4570312,0-0.8212891,0.2197266-1.0927734,0.6572266c-0.2714844,0.4384766-0.4072266,1.0273438-0.4072266,1.765625
				c0,0.7636719,0.1367188,1.3554688,0.4101562,1.7763672s0.6601562,0.6318359,1.1601562,0.6318359
				c0.296875,0,0.5380859-0.0791016,0.7236328-0.2363281S86.6753769,24.46875,86.7105331,24.1884766z"/>
			<path class="st1" d="M89.7246933,28.0585938l3.0585938-10.8134766h3.4335938l3,10.8134766h-3.3164062l-0.2753906-1.359375
				H93.298912l-0.2636719,1.359375H89.7246933z M93.814537,24.1289062h1.2832031l-0.2636719-1.2255859
				c-0.1289062-0.6210938-0.2167969-1.0986328-0.2636719-1.4335938s-0.0761719-0.6494141-0.0878906-0.9453125h-0.0527344
				c-0.0117188,0.2958984-0.0410156,0.6103516-0.0878906,0.9453125s-0.1347656,0.8125-0.2636719,1.4335938L93.814537,24.1289062z"/>
		</g>
	</g>
	<g>
		<rect x="112.8858261" class="st1" width="1" height="28.3466797"/>
	</g>
</g>
</svg>
