<?xml version="1.0" encoding="utf-8"?>
<!-- Generator: Adobe Illustrator 25.2.1, SVG Export Plug-In . SVG Version: 6.00 Build 0)  -->
<svg version="1.1" id="Camada_1" xmlns="http://www.w3.org/2000/svg" xmlns:xlink="http://www.w3.org/1999/xlink" x="0px" y="0px"
	 viewBox="0 0 226.7716522 28.3466797" style="enable-background:new 0 0 226.7716522 28.3466797;" xml:space="preserve">
<style type="text/css">
	.st0{fill:#871249;fill-opacity:0;}
	.st1{enable-background:new    ;}
	.st2{fill:#871249;}
</style>
<g>
	<rect y="0.0020618" class="st0" width="226.7716522" height="28.3464565"/>
	<g>
		<g class="st1">
			<path class="st2" d="M130.6865234,11.0373096L127.7275391,2.1252h0.8144531l2.1445312,6.8496094l2.2851562-7.1894536
				l2.3730469,7.1308599l2.0625-6.7910156h0.8085938l-2.8710938,8.9121094l-2.3730469-7.2832031L130.6865234,11.0373096z"/>
			<path class="st2" d="M139.3173828,10.7033253V1.6212937h0.6855469v4.6875
				c0.2109375-0.3320312,0.4697266-0.5810547,0.7763672-0.7470703s0.6591797-0.2490234,1.0576172-0.2490234
				c0.5898438,0,1.0488281,0.1640625,1.3769531,0.4921875s0.4921875,0.7851562,0.4921875,1.3710938v3.5273442h-0.7324219V7.4982467
				c0-0.5195312-0.1083984-0.9052734-0.3251953-1.1572266s-0.5517578-0.3779297-1.0048828-0.3779297
				c-0.5507812,0-0.9560547,0.1630859-1.2158203,0.4892578s-0.3896484,0.8388672-0.3896484,1.5380859v2.7128911H139.3173828z"/>
			<path class="st2" d="M149.4072266,10.7033253V9.7541065c-0.171875,0.3828125-0.4130859,0.6748047-0.7236328,0.8759766
				s-0.6767578,0.3017578-1.0986328,0.3017578c-0.7460938,0-1.3466797-0.2558594-1.8017578-0.7675781
				s-0.6826172-1.1875-0.6826172-2.0273438c0-0.8320317,0.2246094-1.5107427,0.6738281-2.0361333
				s1.0292969-0.7880859,1.7402344-0.7880859c0.4414062,0,0.8232422,0.0966797,1.1455078,0.2900391
				s0.5712891,0.4775391,0.7470703,0.8525391V5.5060592h0.7207031v5.1972661H149.4072266z M145.9033203,8.1603565
				c0,0.671875,0.1513672,1.1894531,0.4541016,1.5527344s0.7353516,0.5449219,1.2978516,0.5449219
				c0.546875,0,0.9775391-0.1982422,1.2919922-0.5947266s0.4716797-0.9423828,0.4716797-1.6376953
				c0-0.6367192-0.15625-1.1376958-0.46875-1.5029302s-0.7402344-0.5478516-1.2832031-0.5478516
				s-0.9726562,0.1943359-1.2890625,0.5830078S145.9033203,7.4806685,145.9033203,8.1603565z"/>
			<path class="st2" d="M152.2138672,6.1212935h-0.9550781V5.5060592h0.9550781V3.3732469h0.7089844v2.1328123h1.0429688v0.6152344
				h-1.0429688v4.5820317h-0.7089844V6.1212935z"/>
			<path class="st2" d="M158.3613281,3.4787157c0-0.1523438,0.0546875-0.2822266,0.1640625-0.3896484
				s0.2402344-0.1611328,0.3925781-0.1611328s0.2832031,0.0537109,0.3945312,0.1611328s0.1679688,0.2373047,0.1679688,0.3896484
				c0,0.15625-0.0546875,0.2871094-0.1621094,0.3925781s-0.2402344,0.1582029-0.4003906,0.1582029
				c-0.15625,0-0.2890625-0.0527341-0.3964844-0.1582029S158.3613281,3.6349657,158.3613281,3.4787157z M158.5429688,10.7033253
				V5.5060592h0.7441406v5.1972661H158.5429688z"/>
			<path class="st2" d="M160.6640625,9.777544l0.6855469-0.3925781c0.1132812,0.2890625,0.2773438,0.5068359,0.4921875,0.6533203
				s0.4785156,0.2197266,0.7910156,0.2197266c0.3046875,0,0.546875-0.0771484,0.7265625-0.2314453
				s0.2695312-0.3603516,0.2695312-0.6181641c0-0.3984375-0.3535156-0.7363281-1.0605469-1.0136719
				c-0.0742188-0.0273438-0.1328125-0.0507812-0.1757812-0.0703125c-0.546875-0.2148438-0.9296875-0.4365239-1.1484375-0.6650395
				s-0.328125-0.5107422-0.328125-0.8466797c0-0.4414062,0.15625-0.8037109,0.46875-1.0869141
				s0.7167969-0.4248047,1.2128906-0.4248047c0.421875,0,0.78125,0.0917969,1.078125,0.2753906
				s0.5136719,0.4453125,0.6503906,0.7851562l-0.6621094,0.3691406c-0.0820312-0.2460938-0.21875-0.4335938-0.4101562-0.5625
				s-0.4257812-0.1933594-0.703125-0.1933594c-0.25,0-0.4570312,0.0732422-0.6191406,0.2197266
				s-0.2421875,0.3291016-0.2421875,0.5478516c0,0.2148438,0.0800781,0.3925781,0.2402344,0.5332031
				s0.4921875,0.2949219,0.9960938,0.4628906c0.5703125,0.1992188,0.953125,0.4160161,1.1503906,0.6503911
				s0.296875,0.5585938,0.296875,0.9726562c0,0.4765625-0.1699219,0.8574219-0.5097656,1.1425781
				s-0.796875,0.4277344-1.3710938,0.4277344c-0.4414062,0-0.8222656-0.1005859-1.140625-0.3017578
				S160.8046875,10.1447315,160.6640625,9.777544z"/>
			<path class="st2" d="M169.1601562,3.4787157c0-0.1523438,0.0546875-0.2822266,0.1640625-0.3896484
				s0.2402344-0.1611328,0.3925781-0.1611328S170,2.9816453,170.1113281,3.0890672s0.1679688,0.2373047,0.1679688,0.3896484
				c0,0.15625-0.0546875,0.2871094-0.1621094,0.3925781s-0.2402344,0.1582029-0.4003906,0.1582029
				c-0.15625,0-0.2890625-0.0527341-0.3964844-0.1582029S169.1601562,3.6349657,169.1601562,3.4787157z M169.3417969,10.7033253
				V5.5060592h0.7441406v5.1972661H169.3417969z"/>
			<path class="st2" d="M172.0546875,10.7033253V5.5060592h0.6855469v0.8027344
				c0.2109375-0.3320312,0.46875-0.5810547,0.7753906-0.7470703s0.6601562-0.2490234,1.0585938-0.2490234
				c0.5898438,0,1.0488281,0.1640625,1.3769531,0.4921875s0.4921875,0.7851562,0.4921875,1.3710938v3.5273442h-0.7324219V7.4982467
				c0-0.5195312-0.109375-0.9052734-0.3261719-1.1572266s-0.5507812-0.3779297-1.0039062-0.3779297
				c-0.5507812,0-0.9570312,0.1630859-1.2167969,0.4892578s-0.3886719,0.8388672-0.3886719,1.5380859v2.7128911H172.0546875z"/>
			<path class="st2" d="M181.9160156,6.1212935h-0.9550781V5.5060592h0.9550781V3.3732469H182.625v2.1328123h1.0429688v0.6152344
				H182.625v4.5820317h-0.7089844V6.1212935z"/>
			<path class="st2" d="M184.7402344,10.7033253V1.6212937h0.6855469v4.6875
				c0.2109375-0.3320312,0.46875-0.5810547,0.7753906-0.7470703s0.6601562-0.2490234,1.0585938-0.2490234
				c0.5898438,0,1.0488281,0.1640625,1.3769531,0.4921875s0.4921875,0.7851562,0.4921875,1.3710938v3.5273442h-0.7324219V7.4982467
				c0-0.5195312-0.109375-0.9052734-0.3261719-1.1572266s-0.5507812-0.3779297-1.0039062-0.3779297
				c-0.5507812,0-0.9570312,0.1630859-1.2167969,0.4892578s-0.3886719,0.8388672-0.3886719,1.5380859v2.7128911H184.7402344z"/>
			<path class="st2" d="M195.4570312,8.1252003h-4.1308594c0.0195312,0.671875,0.1875,1.1992188,0.5039062,1.5820312
				s0.7402344,0.5742188,1.2714844,0.5742188c0.3828125,0,0.71875-0.1035156,1.0078125-0.3105469
				s0.5292969-0.5195312,0.7207031-0.9375l0.6621094,0.3632812c-0.265625,0.5273438-0.5917969,0.9150391-0.9765625,1.1630859
				s-0.8554688,0.3720703-1.4140625,0.3720703c-0.7617188,0-1.3789062-0.2548828-1.8496094-0.7646484
				s-0.7050781-1.1787109-0.7050781-2.0068359c0-0.851563,0.2324219-1.539063,0.6992188-2.0625005
				s1.078125-0.7851562,1.8320312-0.7851562c0.71875,0,1.2949219,0.2412109,1.7285156,0.7236328
				s0.6503906,1.1259766,0.6503906,1.9306641V8.1252003z M194.6015625,7.5099654
				c-0.0351562-0.4765625-0.1933594-0.8457031-0.4746094-1.1074219s-0.6621094-0.3925781-1.1425781-0.3925781
				c-0.4375,0-0.8046875,0.1367188-1.0996094,0.4101562s-0.4648438,0.6367188-0.5117188,1.0898438H194.6015625z"/>
		</g>
		<g class="st1">
			<path class="st2" d="M132.5849609,20.855669c-0.2421875-0.1679688-0.5-0.2939453-0.7734375-0.3779297
				s-0.5546875-0.1259766-0.84375-0.1259766c-0.6445312,0-1.1582031,0.2060547-1.5410156,0.6181641
				s-0.5742188,0.9619141-0.5742188,1.6494141c0,0.609375,0.1982422,1.1113281,0.5947266,1.5058594
				s0.9033203,0.5917969,1.5205078,0.5917969c0.28125,0,0.5654297-0.0488281,0.8525391-0.1464844
				s0.5693359-0.2441406,0.8466797-0.4394531v0.7910156c-0.2539062,0.1445312-0.5351562,0.2529297-0.84375,0.3251953
				s-0.6386719,0.1083984-0.9902344,0.1083984c-0.7929688,0-1.4433594-0.2607422-1.9511719-0.7822266
				s-0.7617188-1.1884766-0.7617188-2.0009766c0-0.8476562,0.2646484-1.5361328,0.7939453-2.0654297
				s1.2177734-0.7939453,2.0654297-0.7939453c0.3125,0,0.6064453,0.0302734,0.8818359,0.0908203
				s0.5205078,0.1474609,0.7353516,0.2607422L132.5849609,20.855669z"/>
			<path class="st2" d="M136.3759766,25.3322315c-0.3710938,0-0.7265625-0.0732422-1.0664062-0.2197266
				s-0.6484375-0.3564453-0.9257812-0.6298828c-0.2617188-0.2578125-0.4609375-0.5546875-0.5976562-0.890625
				s-0.2050781-0.6953125-0.2050781-1.078125c0-0.3789062,0.0703125-0.7382812,0.2109375-1.078125
				s0.3417969-0.640625,0.6035156-0.9023438c0.265625-0.265625,0.5683594-0.46875,0.9082031-0.609375
				s0.6972656-0.2109375,1.0722656-0.2109375c0.3828125,0,0.7470703,0.0703125,1.0927734,0.2109375
				s0.6533203,0.34375,0.9228516,0.609375s0.4755859,0.5683594,0.6181641,0.9082031s0.2138672,0.6972656,0.2138672,1.0722656
				s-0.0703125,0.7314453-0.2109375,1.0693359s-0.34375,0.6376953-0.609375,0.8994141
				c-0.2734375,0.2734375-0.5849609,0.4833984-0.9345703,0.6298828S136.7548828,25.3322315,136.3759766,25.3322315z
				 M136.3994141,24.6584034c0.5703125,0,1.0537109-0.2060547,1.4501953-0.6181641s0.5947266-0.9169922,0.5947266-1.5146484
				c0-0.6054688-0.1972656-1.1132812-0.5917969-1.5234375s-0.8789062-0.6152344-1.453125-0.6152344
				c-0.5703125,0-1.0527344,0.2050781-1.4472656,0.6152344s-0.5917969,0.9179688-0.5917969,1.5234375
				c0,0.5976562,0.1972656,1.1025391,0.5917969,1.5146484S135.8291016,24.6584034,136.3994141,24.6584034z"/>
			<path class="st2" d="M144.5498047,25.1037159v-0.9492188c-0.171875,0.3828125-0.4130859,0.6748047-0.7236328,0.8759766
				s-0.6767578,0.3017578-1.0986328,0.3017578c-0.7460938,0-1.3466797-0.2558594-1.8017578-0.7675781
				s-0.6826172-1.1875-0.6826172-2.0273438c0-0.8320312,0.2246094-1.5107422,0.6738281-2.0361328
				s1.0292969-0.7880859,1.7402344-0.7880859c0.4414062,0,0.8232422,0.0966797,1.1455078,0.2900391
				s0.5712891,0.4775391,0.7470703,0.8525391v-0.9492188h0.7207031v5.1972656H144.5498047z M141.0458984,22.5607471
				c0,0.671875,0.1513672,1.1894531,0.4541016,1.5527344s0.7353516,0.5449219,1.2978516,0.5449219
				c0.546875,0,0.9775391-0.1982422,1.2919922-0.5947266s0.4716797-0.9423828,0.4716797-1.6376953
				c0-0.6367188-0.15625-1.1376953-0.46875-1.5029297s-0.7402344-0.5478516-1.2832031-0.5478516
				s-0.9726562,0.1943359-1.2890625,0.5830078S141.0458984,21.8810596,141.0458984,22.5607471z"/>
			<path class="st2" d="M147.3564453,20.5216846h-0.9550781v-0.6152344h0.9550781v-2.1328125h0.7089844v2.1328125h1.0429688
				v0.6152344h-1.0429688v4.5820312h-0.7089844V20.5216846z"/>
			<path class="st2" d="M155.9990234,25.3322315c-0.3710938,0-0.7265625-0.0732422-1.0664062-0.2197266
				s-0.6484375-0.3564453-0.9257812-0.6298828c-0.2617188-0.2578125-0.4609375-0.5546875-0.5976562-0.890625
				s-0.2050781-0.6953125-0.2050781-1.078125c0-0.3789062,0.0703125-0.7382812,0.2109375-1.078125
				s0.3417969-0.640625,0.6035156-0.9023438c0.265625-0.265625,0.5683594-0.46875,0.9082031-0.609375
				s0.6972656-0.2109375,1.0722656-0.2109375c0.3828125,0,0.7470703,0.0703125,1.0927734,0.2109375
				s0.6542969,0.34375,0.9238281,0.609375s0.4746094,0.5683594,0.6171875,0.9082031s0.2148438,0.6972656,0.2148438,1.0722656
				s-0.0703125,0.7314453-0.2109375,1.0693359s-0.34375,0.6376953-0.609375,0.8994141
				c-0.2734375,0.2734375-0.5859375,0.4833984-0.9355469,0.6298828S156.3779297,25.3322315,155.9990234,25.3322315z
				 M156.0224609,24.6584034c0.5703125,0,1.0537109-0.2060547,1.4501953-0.6181641s0.5957031-0.9169922,0.5957031-1.5146484
				c0-0.6054688-0.1972656-1.1132812-0.5917969-1.5234375c-0.3955078-0.4101562-0.8798828-0.6152344-1.4541016-0.6152344
				c-0.5703125,0-1.0527344,0.2050781-1.4472656,0.6152344s-0.5917969,0.9179688-0.5917969,1.5234375
				c0,0.5976562,0.1972656,1.1025391,0.5917969,1.5146484S155.4521484,24.6584034,156.0224609,24.6584034z"/>
			<path class="st2" d="M160.5058594,25.1037159v-4.5820312h-0.9726562v-0.6152344h0.9726562v-1.5
				c0-1.0429688,0.0976562-1.7197266,0.2929688-2.0302734s0.5527344-0.4658203,1.0722656-0.4658203
				c0.1289062,0,0.2519531,0.0107422,0.3691406,0.0322266s0.2265625,0.0517578,0.328125,0.0908203l-0.1347656,0.6328125
				c-0.09375-0.046875-0.1855469-0.0820312-0.2734375-0.1054688s-0.1679688-0.0351562-0.2421875-0.0351562
				c-0.2539062,0-0.4335938,0.1005859-0.5390625,0.3017578s-0.1582031,0.5712891-0.1582031,1.1103516v1.96875h1.1425781v0.6152344
				h-1.1425781v4.5820312H160.5058594z"/>
			<path class="st2" d="M170.7363281,25.1037159v-0.9492188c-0.171875,0.3828125-0.4140625,0.6748047-0.7246094,0.8759766
				s-0.6757812,0.3017578-1.0976562,0.3017578c-0.7460938,0-1.3476562-0.2558594-1.8027344-0.7675781
				s-0.6816406-1.1875-0.6816406-2.0273438c0-0.8320312,0.2246094-1.5107422,0.6738281-2.0361328
				s1.0292969-0.7880859,1.7402344-0.7880859c0.4414062,0,0.8222656,0.0966797,1.1445312,0.2900391
				s0.5722656,0.4775391,0.7480469,0.8525391v-0.9492188h0.7207031v5.1972656H170.7363281z M167.2324219,22.5607471
				c0,0.671875,0.1503906,1.1894531,0.453125,1.5527344s0.7363281,0.5449219,1.2988281,0.5449219
				c0.546875,0,0.9765625-0.1982422,1.2910156-0.5947266s0.4726562-0.9423828,0.4726562-1.6376953
				c0-0.6367188-0.15625-1.1376953-0.46875-1.5029297s-0.7402344-0.5478516-1.2832031-0.5478516
				s-0.9726562,0.1943359-1.2890625,0.5830078S167.2324219,21.8810596,167.2324219,22.5607471z"/>
			<path class="st2" d="M174.1113281,20.949419c0.265625-0.4492188,0.5253906-0.7675781,0.78125-0.9550781
				s0.5546875-0.28125,0.8945312-0.28125c0.1015625,0,0.203125,0.0097656,0.3066406,0.0292969
				s0.2070312,0.046875,0.3085938,0.0820312l-0.234375,0.6796875c-0.078125-0.0234375-0.1601562-0.0429688-0.2441406-0.0585938
				s-0.1640625-0.0234375-0.2421875-0.0234375c-0.4335938,0-0.8046875,0.203125-1.1113281,0.609375
				s-0.4589844,0.9121094-0.4589844,1.5175781v2.5546875h-0.7207031v-5.1972656h0.7207031V20.949419z"/>
			<path class="st2" d="M177.890625,25.1037159h-0.7207031v-5.1972656h0.7207031v0.8144531
				c0.171875-0.328125,0.3984375-0.578125,0.6796875-0.75s0.6054688-0.2578125,0.9726562-0.2578125
				c0.3789062,0,0.7011719,0.0869141,0.96875,0.2607422s0.4746094,0.4287109,0.6191406,0.7646484
				c0.2070312-0.34375,0.4609375-0.6005859,0.7617188-0.7705078s0.6503906-0.2548828,1.0488281-0.2548828
				c0.5507812,0,0.984375,0.1669922,1.3007812,0.5009766s0.4746094,0.7919922,0.4746094,1.3740234v3.515625h-0.7207031v-3.2285156
				c0-0.5078125-0.1054688-0.890625-0.3144531-1.1484375s-0.5195312-0.3867188-0.9335938-0.3867188
				c-0.4960938,0-0.8613281,0.1621094-1.09375,0.4863281s-0.3476562,0.8378906-0.3476562,1.5410156v2.7363281h-0.7148438v-3.2285156
				c0-0.53125-0.0996094-0.9199219-0.2988281-1.1660156s-0.5078125-0.3691406-0.9257812-0.3691406
				c-0.5078125,0-0.8808594,0.1640625-1.1191406,0.4921875s-0.3574219,0.8398438-0.3574219,1.5351562V25.1037159z"/>
			<path class="st2" d="M186.046875,24.1779346l0.6855469-0.3925781c0.1132812,0.2890625,0.2773438,0.5068359,0.4921875,0.6533203
				s0.4785156,0.2197266,0.7910156,0.2197266c0.3046875,0,0.546875-0.0771484,0.7265625-0.2314453
				s0.2695312-0.3603516,0.2695312-0.6181641c0-0.3984375-0.3535156-0.7363281-1.0605469-1.0136719
				c-0.0742188-0.0273438-0.1328125-0.0507812-0.1757812-0.0703125c-0.546875-0.2148438-0.9296875-0.4365234-1.1484375-0.6650391
				s-0.328125-0.5107422-0.328125-0.8466797c0-0.4414062,0.15625-0.8037109,0.46875-1.0869141
				s0.7167969-0.4248047,1.2128906-0.4248047c0.421875,0,0.78125,0.0917969,1.078125,0.2753906
				s0.5136719,0.4453125,0.6503906,0.7851562l-0.6621094,0.3691406c-0.0820312-0.2460938-0.21875-0.4335938-0.4101562-0.5625
				s-0.4257812-0.1933594-0.703125-0.1933594c-0.25,0-0.4570312,0.0732422-0.6191406,0.2197266
				s-0.2421875,0.3291016-0.2421875,0.5478516c0,0.2148438,0.0800781,0.3925781,0.2402344,0.5332031
				s0.4921875,0.2949219,0.9960938,0.4628906c0.5703125,0.1992188,0.953125,0.4160156,1.1503906,0.6503906
				s0.296875,0.5585938,0.296875,0.9726562c0,0.4765625-0.1699219,0.8574219-0.5097656,1.1425781
				s-0.796875,0.4277344-1.3710938,0.4277344c-0.4414062,0-0.8222656-0.1005859-1.140625-0.3017578
				S186.1875,24.5451221,186.046875,24.1779346z"/>
			<path class="st2" d="M191.9648438,18.6818409h-0.6972656v-0.1875c0-0.671875,0.1894531-1.2001953,0.5683594-1.5849609
				s0.8984375-0.5771484,1.5585938-0.5771484c0.59375,0,1.0664062,0.1757812,1.4199219,0.5273438
				s0.53125,0.8242188,0.53125,1.4179688c0,0.4335938-0.09375,0.796875-0.28125,1.0898438s-0.5683594,0.625-1.1425781,0.9960938
				c-0.1015625,0.0625-0.2421875,0.1503906-0.421875,0.2636719c-0.7773438,0.4804688-1.1660156,0.9335938-1.1660156,1.359375
				c0,0.28125,0.0898438,0.5068359,0.2695312,0.6767578s0.4179688,0.2548828,0.7148438,0.2548828
				c0.3476562,0,0.6171875-0.0908203,0.8085938-0.2724609s0.2871094-0.4384766,0.2871094-0.7705078v-0.1054688h0.6445312v0.140625
				c0,0.5273438-0.15625,0.9316406-0.46875,1.2128906s-0.7636719,0.421875-1.3535156,0.421875
				c-0.484375,0-0.8808594-0.1464844-1.1875-0.4394531s-0.4589844-0.671875-0.4589844-1.1367188
				c0-0.3398438,0.0898438-0.6396484,0.2695312-0.8994141s0.5136719-0.5517578,1.0019531-0.8759766
				c0.1015625-0.0625,0.2441406-0.1523438,0.4277344-0.2695312c0.8828125-0.5585938,1.3242188-1.0917969,1.3242188-1.5996094
				c0-0.3789062-0.1132812-0.6816406-0.3398438-0.9082031s-0.5332031-0.3398438-0.9199219-0.3398438
				c-0.4453125,0-0.7890625,0.1367188-1.0292969,0.4101562s-0.359375,0.6601562-0.359375,1.1601562V18.6818409z
				 M192.609375,24.7345753c0-0.1679688,0.0585938-0.3105469,0.1757812-0.4277344s0.2597656-0.1757812,0.4277344-0.1757812
				s0.3085938,0.0585938,0.4238281,0.1757812s0.1738281,0.2597656,0.1738281,0.4277344s-0.0585938,0.3095703-0.1738281,0.4248047
				s-0.2558594,0.1728516-0.4238281,0.1728516s-0.3105469-0.0576172-0.4277344-0.1728516
				S192.609375,24.902544,192.609375,24.7345753z"/>
		</g>
		<g>
			<g>
				<path class="st2" d="M6.0821157,5.5854888C6.0703969,5.939981,6.0059438,6.4497466,5.8887563,7.1147857
					C5.869225,7.2231841,5.8536,7.3091216,5.8418813,7.3735747L5.19735,11.0591221H2.5078971L0.0000846,0.2456449h3.09375
					l0.6738281,4.7636714C3.8262565,5.4282622,3.8711784,5.8110747,3.9024284,6.158731
					c0.03125,0.3466797,0.0507812,0.6728516,0.0585938,0.9785156h0.0703123
					C4.0391469,6.7085357,4.0996938,6.1450591,4.212975,5.4458404C4.2207875,5.3813872,4.2286,5.3296294,4.2364125,5.2905669
					l0.8144531-5.0449219h2.1738281l0.8144536,5.0517578c0.0039062,0.0302734,0.0117188,0.0791016,0.0234375,0.1484375
					C8.1758661,6.1499419,8.236413,6.7134185,8.2442255,7.1372466H8.314538
					C8.3223505,6.8315825,8.3418818,6.5054107,8.3731318,6.158731c0.03125-0.3476562,0.0761719-0.7304688,0.1347656-1.1494141
					l0.6738281-4.7636719h3.09375L9.767663,11.0591221H7.0782094L6.4336782,7.3735747
					C6.4219594,7.3091216,6.4063344,7.221231,6.3868032,7.1069732C6.2696157,6.4477935,6.2051625,5.939981,6.1934438,5.5854888
					H6.0821157z"/>
				<path class="st2" d="M12.4654169,11.0591221V0.2456449h3.1347656v10.8134775H12.4654169z"/>
				<path class="st2" d="M16.868248,11.0591221V0.2456449h3.0234375v4.6093745l1.9570312-4.609375h3.4921875l-2.5898438,5.3251953
					l2.953125,5.4882822h-3.7324219l-2.0800781-4.5205083v4.5205083H16.868248z"/>
				<path class="st2" d="M25.7007675,11.0591221V0.2456449h3.1347656v10.8134775H25.7007675z"/>
				<path class="st2" d="M41.6607285,11.0591221l-0.375-4.2841802c-0.0234375-0.3300781-0.046875-0.6582031-0.0703125-0.9863281
					c-0.0234375-0.3271484-0.0429688-0.6552734-0.0585938-0.9853516c-0.0351562,0.3095703-0.0849609,0.6386719-0.1494141,0.9853516
					C40.942955,6.13627,40.8638535,6.5063872,40.7701035,6.9009185l-0.984375,4.1582036h-1.8339844l-0.984375-4.1582036
					c-0.0976562-0.3945312-0.1777344-0.7646484-0.2402344-1.1123047c-0.0625-0.3466797-0.1113281-0.6757812-0.1464844-0.9853516
					c-0.0195312,0.3349609-0.0400391,0.6640625-0.0615234,0.9892578s-0.0439453,0.6523438-0.0673828,0.9824219l-0.375,4.2841802
					h-3.0234375l1.4648438-10.8134766h3.1816406l0.609375,2.6738281c0.0195312,0.0839844,0.0488281,0.2089844,0.0878906,0.3769531
					c0.2578125,1.1269529,0.4160156,2.0556638,0.4746094,2.7841794h0.0527344
					c0.046875-0.4580078,0.1171875-0.9453125,0.2109375-1.4619141c0.09375-0.5175781,0.21875-1.0986328,0.375-1.7431641
					l0.6386719-2.6298828h3.1757812l1.359375,10.8134775H41.6607285z"/>
				<path class="st2" d="M45.0440292,6.1099029V0.2456449h3.0820312v5.8945308c0,0.6845703,0.0644531,1.1552734,0.1933594,1.4140625
					s0.3496094,0.3876953,0.6621094,0.3876953c0.3085938,0,0.5292969-0.1328125,0.6621094-0.3984375
					c0.1328125-0.2666016,0.1992188-0.734375,0.1992188-1.4033203V0.2456449h3.0820312v5.8642573
					c0,0.7685547-0.0400391,1.4013672-0.1201172,1.8984385c-0.0800781,0.4980469-0.2080078,0.9140625-0.3837891,1.2480469
					c-0.34375,0.6748047-0.8125,1.1923828-1.40625,1.5517578s-1.2714844,0.5390625-2.0332031,0.5390625
					c-0.765625,0-1.4453125-0.1796875-2.0390625-0.5390625s-1.0625-0.8769531-1.40625-1.5517578
					c-0.171875-0.3291016-0.296875-0.7402344-0.375-1.2333984C45.0830917,7.5308013,45.0440292,6.893106,45.0440292,6.1099029z"/>
				<path class="st2" d="M53.349205,10.1362705l0.984375-3.0292974c0.4414062,0.3896484,0.8349609,0.6738281,1.1806641,0.8535156
					c0.3457031,0.179688,0.6689453,0.2695317,0.9697266,0.2695317c0.2109375,0,0.3769531-0.0507812,0.4980469-0.1513672
					c0.1210938-0.1005864,0.1816406-0.2373052,0.1816406-0.4101567c0-0.2998047-0.3027344-0.5292969-0.9082031-0.6865234
					c-0.1953125-0.0546875-0.3476562-0.0957031-0.4570312-0.1259766c-0.640625-0.1962891-1.1308594-0.5458984-1.4707031-1.0488281
					c-0.3398438-0.5019531-0.5097656-1.1269531-0.5097656-1.8759766c0-1.1621094,0.3300781-2.1074219,0.9902344-2.8359375
					s1.5253906-1.09375,2.5957031-1.09375c0.4921875,0,0.9765625,0.0810547,1.453125,0.2441406
					c0.4765625,0.1621094,0.9570312,0.4082032,1.4414062,0.7382811l-0.9375,2.8291016
					c-0.296875-0.2753906-0.5947266-0.4863281-0.8935547-0.6318359c-0.2988281-0.1445312-0.5888672-0.2177734-0.8701172-0.2177734
					c-0.2148438,0-0.3808594,0.0458984-0.4980469,0.1367188c-0.1171875,0.0917969-0.1757812,0.2177734-0.1757812,0.3808594
					c0,0.3046875,0.4277344,0.5732424,1.2832031,0.8046873c0.1367188,0.0400391,0.2421875,0.0693359,0.3164062,0.0888672
					c0.5898438,0.1669922,1.0546875,0.5097656,1.3945312,1.0263672C60.2574081,5.9184966,60.42733,6.5434966,60.42733,7.276895
					c0,1.1972661-0.3427734,2.1748052-1.0283203,2.9326177c-0.6855469,0.7587891-1.5771484,1.1376953-2.6748047,1.1376953
					c-0.5625,0-1.125-0.1005859-1.6875-0.3027344S53.911705,10.5395908,53.349205,10.1362705z"/>
				<path class="st2" d="M61.0625839,11.0591221V0.2456449h5.7363281v2.9326172h-2.7128906v1.0410156h2.4609375v2.7695312
					h-2.4609375v1.1376958h2.7832031v2.9326172H61.0625839z"/>
				<path class="st2" d="M67.6275253,6.1099029V0.2456449h3.0820312v5.8945308c0,0.6845703,0.0644531,1.1552734,0.1933594,1.4140625
					s0.3496094,0.3876953,0.6621094,0.3876953c0.3085938,0,0.5292969-0.1328125,0.6621094-0.3984375
					c0.1328125-0.2666016,0.1992188-0.734375,0.1992188-1.4033203V0.2456449h3.0820312v5.8642573
					c0,0.7685547-0.0400391,1.4013672-0.1201172,1.8984385c-0.0800781,0.4980469-0.2080078,0.9140625-0.3837891,1.2480469
					c-0.34375,0.6748047-0.8125,1.1923828-1.40625,1.5517578s-1.2714844,0.5390625-2.0332031,0.5390625
					c-0.765625,0-1.4453125-0.1796875-2.0390625-0.5390625s-1.0625-0.8769531-1.40625-1.5517578
					c-0.171875-0.3291016-0.296875-0.7402344-0.375-1.2333984C67.6665878,7.5308013,67.6275253,6.893106,67.6275253,6.1099029z"/>
				<path class="st2" d="M80.4292831,11.0591221V0.2456449h2.4960938c0.7929688,0,1.4697266,0.0556641,2.0302734,0.1660156
					c0.5605469,0.1113282,1.0166016,0.2822266,1.3681641,0.5136719c0.7421875,0.4921874,1.3115234,1.1445315,1.7080078,1.9570315
					s0.5947266,1.7382812,0.5947266,2.7773438c0,1.0341797-0.1972656,1.9550781-0.5917969,2.7626958
					s-0.9648438,1.4599609-1.7109375,1.9570312c-0.3632812,0.2363281-0.8242188,0.4091797-1.3828125,0.5175781
					s-1.3066406,0.1621094-2.2441406,0.1621094H80.4292831z M83.4878769,7.7573638
					c0.6953125-0.0048828,1.203125-0.1757812,1.5234375-0.5136719c0.3203125-0.3369141,0.4804688-0.8652344,0.4804688-1.5839844
					c0-0.7041016-0.1533203-1.2285156-0.4599609-1.5732422s-0.7763672-0.5166016-1.4091797-0.5166016h-0.1347656V7.7573638z"/>
				<path class="st2" d="M98.3965683,5.674356c0,0.7929688-0.1113281,1.5302734-0.3339844,2.2119141
					c-0.2226562,0.6826177-0.5488281,1.2919927-0.9785156,1.8281255c-0.4296875,0.5273438-0.9248047,0.9306641-1.4853516,1.2119141
					c-0.5605469,0.2802734-1.1572266,0.4208984-1.7900391,0.4208984c-0.640625,0-1.2402344-0.140625-1.7988281-0.4208984
					c-0.5585938-0.28125-1.0546875-0.6894531-1.4882812-1.2265625c-0.4257812-0.5214844-0.7480469-1.1220703-0.9667969-1.8017583
					s-0.328125-1.4208984-0.328125-2.2236328s0.109375-1.5458984,0.328125-2.2304688s0.5410156-1.2880859,0.9667969-1.8095704
					c0.4296875-0.5322266,0.9238281-0.9365234,1.4824219-1.2148438s1.1601562-0.4179688,1.8046875-0.4179688
					s1.2460938,0.1396484,1.8046875,0.4179688s1.0546875,0.6826172,1.4882812,1.2148438
					c0.421875,0.5263673,0.7431641,1.1328126,0.9638672,1.8164064C98.2862167,4.1352935,98.3965683,4.8765044,98.3965683,5.674356z
					 M93.8086777,7.7134185c0.4335938,0,0.7822266-0.1865234,1.0458984-0.5576172
					c0.2636719-0.3720703,0.3955078-0.8652344,0.3955078-1.4814453c0-0.6201172-0.1318359-1.1191406-0.3955078-1.4951172
					c-0.2636719-0.3769531-0.6123047-0.5654297-1.0458984-0.5654297s-0.7832031,0.1894531-1.0488281,0.5683594
					c-0.265625,0.3798828-0.3984375,0.8769531-0.3984375,1.4921875c0,0.6162109,0.1328125,1.109375,0.3984375,1.4814453
					C93.0254745,7.526895,93.3750839,7.7134185,93.8086777,7.7134185z"/>
				<path class="st2" d="M37.9107285,28.0591221V17.2456455h3.1347656v10.8134766H37.9107285z"/>
				<path class="st2" d="M42.3135605,28.0591221V17.2456455h3.6855469c1.296875,0,2.2451172,0.3154297,2.8447266,0.9453125
					c0.5996094,0.6308594,0.8994141,1.6298828,0.8994141,2.9990234c0,1.2753906-0.2695312,2.2070312-0.8085938,2.7958984
					c-0.5390625,0.5878906-1.3945312,0.8828125-2.5664062,0.8828125h-0.9667969v3.1904297H42.3135605z M45.4131699,20.2515049
					v1.8027344h0.4804688c0.2929688,0,0.5175781-0.078125,0.6738281-0.2324219
					c0.15625-0.1552734,0.234375-0.3759766,0.234375-0.6611328c0-0.2861328-0.0800781-0.5087891-0.2402344-0.6689453
					s-0.3828125-0.2402344-0.6679688-0.2402344H45.4131699z"/>
				<path class="st2" d="M50.4722519,28.0591221V17.2456455h3.1347656v10.8134766H50.4722519z"/>
				<path class="st2" d="M54.8750839,28.0591221V17.2456455h3.8789062c1.125,0,1.984375,0.3125,2.578125,0.9375
					c0.59375,0.6259766,0.890625,1.5273438,0.890625,2.7041016c0,0.7675781-0.1494141,1.4003906-0.4482422,1.8984375
					c-0.2988281,0.4970703-0.7021484,0.7871094-1.2099609,0.8710938l2.2910156,4.4023438h-3.4570312l-1.5-3.5673828v3.5673828
					H54.8750839z M57.8985214,20.0298252v2.1132812h0.4804688c0.2929688,0,0.5185547-0.0898438,0.6767578-0.2705078
					c0.1582031-0.1796875,0.2373047-0.4365234,0.2373047-0.7714844c0-0.3447266-0.0791016-0.609375-0.2373047-0.7939453
					s-0.3837891-0.2773438-0.6767578-0.2773438H57.8985214z"/>
				<path class="st2" d="M61.9322128,28.0591221l3.0585938-10.8134766h3.4335938l3,10.8134766h-3.3164062l-0.2753906-1.359375
					h-2.3261719l-0.2636719,1.359375H61.9322128z M66.0220566,24.1294346h1.2832031l-0.2636719-1.2255859
					c-0.1289062-0.6210938-0.2167969-1.0986328-0.2636719-1.4335938s-0.0761719-0.6494141-0.0878906-0.9453125H66.637291
					c-0.0117188,0.2958984-0.0410156,0.6103516-0.0878906,0.9453125s-0.1347656,0.8125-0.2636719,1.4335938L66.0220566,24.1294346z"
					/>
				<path class="st2" d="M71.5030136,28.0591221V17.2456455h3.0234375l2.6660156,5.6582031
					c-0.0351562-0.2519531-0.0595703-0.5292969-0.0732422-0.8349609s-0.0205078-0.7041016-0.0205078-1.1962891v-3.6269531h2.9707031
					v10.8134766h-3.046875l-2.6367188-5.6132812c0.03125,0.2412109,0.0546875,0.5009766,0.0703125,0.7792969
					s0.0234375,0.5898438,0.0234375,0.9335938v3.9003906H71.5030136z"/>
				<path class="st2" d="M86.7105331,24.1890049h-1.3417969v-2.5410156h4.7402344
					c0.0078125,0.2216797,0.0136719,0.3867188,0.0175781,0.4951172s0.0058594,0.2041016,0.0058594,0.2880859
					c0,0.6201172-0.046875,1.1865234-0.140625,1.6982422c-0.09375,0.5126953-0.2304688,0.9658203-0.4101562,1.359375
					c-0.4375,0.9257812-1.0019531,1.6337891-1.6933594,2.1230469c-0.6914062,0.4902344-1.4765625,0.7353516-2.3554688,0.7353516
					c-0.6484375,0-1.2509766-0.1367188-1.8076172-0.4101562s-1.0498047-0.6757812-1.4794922-1.2070312
					c-0.4257812-0.5322266-0.7480469-1.140625-0.9667969-1.8251953c-0.21875-0.6835938-0.328125-1.4277344-0.328125-2.2304688
					c0-0.8076172,0.1103516-1.5546875,0.3310547-2.2412109c0.2207031-0.6875,0.5419922-1.2919922,0.9638672-1.8134766
					c0.4257812-0.5273438,0.9179688-0.9287109,1.4765625-1.2041016s1.1621094-0.4140625,1.8105469-0.4140625
					c0.8789062,0,1.6601562,0.2431641,2.34375,0.7275391c0.6835938,0.4853516,1.2421875,1.1953125,1.6757812,2.1308594
					l-2.7480469,1.2851562c-0.1445312-0.2998047-0.3183594-0.5244141-0.5214844-0.671875s-0.4355469-0.2216797-0.6972656-0.2216797
					c-0.4570312,0-0.8212891,0.2197266-1.0927734,0.6572266c-0.2714844,0.4384766-0.4072266,1.0273438-0.4072266,1.765625
					c0,0.7636719,0.1367188,1.3554688,0.4101562,1.7763672s0.6601562,0.6318359,1.1601562,0.6318359
					c0.296875,0,0.5380859-0.0791016,0.7236328-0.2363281S86.6753769,24.4692783,86.7105331,24.1890049z"/>
				<path class="st2" d="M89.7246933,28.0591221l3.0585938-10.8134766h3.4335938l3,10.8134766h-3.3164062l-0.2753906-1.359375
					H93.298912l-0.2636719,1.359375H89.7246933z M93.814537,24.1294346h1.2832031l-0.2636719-1.2255859
					c-0.1289062-0.6210938-0.2167969-1.0986328-0.2636719-1.4335938s-0.0761719-0.6494141-0.0878906-0.9453125h-0.0527344
					c-0.0117188,0.2958984-0.0410156,0.6103516-0.0878906,0.9453125s-0.1347656,0.8125-0.2636719,1.4335938L93.814537,24.1294346z"
					/>
			</g>
		</g>
		<g>
			<rect x="112.8858261" y="0.0005278" class="st2" width="1" height="28.3466797"/>
		</g>
	</g>
</g>
</svg>
